<svg width="128" height="128" viewBox="0 0 128 128" fill="none" xmlns="http://www.w3.org/2000/svg">
<g clip-path="url(#clip0_16_56)">
<path d="M26.5555 51.2778H7.38889C3.79514 51.2778 1 48.4827 1 44.889V38.5001C1 31.5122 6.59028 25.7223 13.7778 25.7223C20.7656 25.7223 26.5555 31.5122 26.5555 38.5001V51.2778ZM58.5 99.1945V96.0001C58.5 92.606 61.2951 89.6112 64.8889 89.6112H109.611C113.005 89.6112 116 92.606 116 96.0001C116 106.582 107.415 115.167 96.8333 115.167H42.5278C51.3125 115.167 58.5 108.179 58.5 99.1945Z" fill="#4A4D8E"/>
<path d="M26.5555 38.5001C26.5555 31.5122 20.7656 25.7223 13.7778 25.7223H84.0555C91.0434 25.7223 96.8333 31.5122 96.8333 38.5001V89.6112H64.8889C61.2951 89.6112 58.5 92.606 58.5 96.0001V99.1945C58.5 108.179 51.3125 115.167 42.5278 115.167C33.5434 115.167 26.5555 108.179 26.5555 99.1945V38.5001Z" fill="#E1E2F8"/>
<ellipse cx="93.9938" cy="41.7839" rx="31.9444" ry="31.9444" transform="rotate(-180 93.9938 41.7839)" fill="white"/>
<path d="M93.2839 6.62961C105.529 6.62961 116.71 13.0185 122.833 23.6666C128.955 34.1817 128.955 47.0926 122.833 57.7407C116.71 68.2558 105.529 74.7777 93.2839 74.7777C81.1717 74.7777 69.9911 68.2558 63.8684 57.7407C57.7458 47.0926 57.7458 34.1817 63.8684 23.6666C69.9911 13.0185 81.1717 6.62961 93.2839 6.62961ZM84.7654 25.7963C83.0351 25.7963 81.571 27.1273 81.571 28.9907C81.571 30.721 83.0351 32.1852 84.7654 32.1852L97.4101 32.1852L79.3082 50.1539C78.1103 51.3518 78.1103 53.3484 79.3082 54.5463C80.6393 55.8773 82.6358 55.8773 83.8337 54.5463L101.802 36.5775L101.802 50.287C101.802 52.0173 103.267 53.4815 104.997 53.4815C106.86 53.4815 108.191 52.0173 108.191 50.287L108.191 28.9907C108.191 27.1273 106.86 25.7963 104.997 25.7963L84.7654 25.7963Z" fill="#4A4D8E"/>
</g>
<defs>
<clipPath id="clip0_16_56">
<rect width="128" height="128" fill="white"/>
</clipPath>
</defs>
</svg>
